<svg width="78" height="79" viewBox="0 0 78 79" fill="none" xmlns="http://www.w3.org/2000/svg">
<path d="M32.6146 0.0775833C28.0721 0.62368 23.4683 2.86988 20.2968 6.05372C17.1969 9.18604 15.3246 12.8026 14.5369 17.1714C14.2811 18.6242 14.23 21.5402 14.4448 23.0445C14.9666 26.7641 16.2147 29.7213 18.8747 33.5336C21.1459 36.7793 21.7496 38.4176 21.7496 41.3335C21.7496 44.1773 21.1357 46.8975 19.5806 50.9366C19.0282 52.3688 18.9566 52.8427 19.2123 53.3373C19.5397 53.9762 19.4886 53.9658 25.76 54.5119C33.8014 55.2229 39.858 55.6453 40.523 55.5423C40.7583 55.5114 41.1061 55.3775 41.2903 55.2538C41.5869 55.0477 41.6381 54.9447 41.8018 54.1101C42.2008 52.0906 42.6203 50.2668 42.8146 49.7516C43.3262 48.3813 43.9605 48.2061 47.2445 48.5461C50.8355 48.917 52.5134 48.5564 53.8229 47.1036C54.8358 45.9805 55.1529 44.7337 54.9074 42.8482C54.8255 42.199 54.7846 41.519 54.8255 41.3232C54.8562 41.1275 55.0711 40.6844 55.2859 40.3444C55.511 40.0044 55.7463 39.5201 55.8077 39.2625C55.9202 38.8606 55.91 38.7473 55.7156 38.2836C55.5928 38.0054 55.511 37.7066 55.5417 37.6448C55.5724 37.5727 55.777 37.3872 56.0021 37.2121C56.575 36.7896 56.5852 36.7278 56.3397 34.6877C56.2476 33.9252 56.442 33.6882 57.24 33.5543C58.4677 33.3585 59.3884 32.7197 59.6749 31.8541C59.859 31.3081 59.7567 30.4013 59.4498 29.7213C59.2964 29.3916 58.4779 28.0006 57.6185 26.6302C56.7591 25.2495 55.9202 23.8276 55.7463 23.4566L55.4291 22.7869L55.4087 20.5716C55.3984 18.5109 55.2859 17.0684 55.0711 16.1101C54.9892 15.7186 54.9994 15.698 55.644 15.0591C56.6568 14.0597 57.0865 12.916 56.6159 12.442C56.176 11.9989 55.3473 11.9371 54.3038 12.2668C54.1298 12.3287 54.048 12.2256 53.7411 11.5353C53.5467 11.0922 53.1068 10.2679 52.7691 9.70123C49.7204 4.6009 44.9426 1.35524 38.753 0.211533C37.6583 0.0157623 33.8627 -0.0769691 32.6146 0.0775833ZM36.8603 3.36446C40.0012 3.65296 42.7839 4.61121 45.2496 6.2598C46.5693 7.14591 48.5643 9.15513 49.4646 10.5255C50.0785 11.4529 51.2857 13.7197 51.2857 13.9463C51.2857 13.9979 51.0401 14.1627 50.7537 14.3276L50.2115 14.6161L47.2957 13.5857C45.6895 13.019 44.1242 12.4729 43.807 12.3802L43.2341 12.1947L42.6816 12.4935C42.3747 12.6584 42.1189 12.8645 42.0985 12.9675C42.078 13.0808 42.7635 13.7094 44.2469 14.9252C45.4439 15.904 46.5591 16.8108 46.7125 16.9344L46.999 17.1611L45.3826 18.4491C44.4925 19.16 43.674 19.7473 43.5615 19.7473C43.4489 19.7473 42.9374 19.634 42.4361 19.4897C41.4437 19.2115 41.28 19.2321 40.7787 19.6237C40.216 20.0461 40.3081 20.2625 41.3619 20.9425C41.8734 21.2723 42.2724 21.5917 42.2519 21.6535C42.1496 21.9729 37.1059 26.0017 34.8142 27.5987C30.9368 30.2983 27.7243 31.5966 24.9108 31.5966C23.1205 31.5966 21.9439 31.1741 20.8186 30.1128C19.7034 29.0618 19.0077 27.8563 18.3427 25.8368C17.8312 24.3015 17.6266 23.1372 17.5549 21.3444C17.2378 13.6063 21.9132 6.72346 29.1464 4.30209C31.7143 3.43658 34.231 3.13778 36.8603 3.36446ZM49.4339 22.6839C49.8943 24.2088 50.2933 25.5483 50.324 25.641C50.457 26.0841 51.7972 25.5895 51.7972 25.1052C51.7972 24.9919 51.8279 24.8992 51.8791 24.8992C51.9609 24.8992 51.8893 24.7755 53.516 27.4751C54.9892 29.9377 55.378 30.6692 55.378 31.0299C55.378 31.4008 54.979 31.7408 54.2833 31.9572C53.4239 32.2251 53.1477 32.3899 52.9226 32.7609C52.6566 33.1833 52.6668 33.7397 52.9328 34.6361C53.3728 36.1096 53.383 36.2229 53.1068 36.5114C52.984 36.6557 52.585 36.9029 52.2371 37.0678C51.8791 37.2224 51.5926 37.3975 51.5926 37.449C51.5926 37.5006 51.7972 37.7272 52.053 37.9642C52.8101 38.6546 52.8203 38.7782 52.2678 39.6437C51.6028 40.6947 51.5415 40.9832 51.6949 42.4669C51.8484 43.8991 51.7563 44.2598 51.1629 44.7131C50.3138 45.3623 49.1475 45.4241 45.7099 44.9913C44.6255 44.8471 43.6842 44.7853 43.2034 44.8162C40.7685 44.981 39.592 46.506 38.661 50.7099C38.5075 51.3899 38.3643 51.9566 38.3438 51.9875C38.2927 52.0288 25.1768 51.5857 25.1155 51.5342C25.1052 51.5239 25.2894 50.9057 25.5452 50.1638C26.1283 48.4328 26.5478 46.8563 26.9058 45.0429C27.1616 43.7137 27.1821 43.3943 27.1821 41.0759C27.1821 38.7885 27.1616 38.4691 26.957 37.7272C26.6603 36.6144 25.8418 34.9968 25.1462 34.1416C24.8392 33.7603 24.5835 33.4306 24.5835 33.41C24.5835 33.3894 24.8495 33.3379 25.1768 33.2967C26.0669 33.1833 28.0005 32.6578 29.0338 32.2457C32.2667 30.9577 36.3386 28.4127 41.9962 24.1676C42.6509 23.673 43.2136 23.2918 43.2443 23.3227C43.275 23.3536 43.4694 23.7451 43.674 24.1882C44.1037 25.1155 44.2367 25.1774 44.8812 24.7343L45.27 24.4664L45.2291 23.1784L45.1984 21.8802L46.8865 20.8704C47.8072 20.314 48.5745 19.871 48.5848 19.8813C48.595 19.8916 48.9838 21.1486 49.4339 22.6839Z" fill="#02305A"/>
<path d="M19.5581 59.0114C18.8649 59.245 18.4562 59.946 18.5273 60.7689C18.625 61.9676 19.7358 62.6381 20.7134 62.0692C21.8508 61.3987 21.6464 59.4177 20.4112 59.0215C20.0113 58.8996 19.8869 58.8895 19.5581 59.0114Z" fill="#02305A"/>
<path d="M53.0954 59.9368C52.2778 60.3533 51.9757 61.2778 52.3489 62.1515C52.6333 62.8118 53.0332 63.0963 53.6464 63.0963C54.1973 63.0963 54.535 62.9236 54.8549 62.4867C55.317 61.867 55.2726 60.9934 54.7661 60.3533C54.2951 59.754 53.7175 59.6117 53.0954 59.9368Z" fill="#02305A"/>
<path d="M74.8075 62.459V65.1511L74.3987 64.7956C73.8389 64.2978 73.5812 64.1657 72.9235 63.9829C71.4128 63.5765 69.8754 64.0844 68.7557 65.3543C67.8138 66.421 67.3428 67.8026 67.3428 69.5195C67.3428 72.2929 68.7024 74.5075 70.7286 75.0561C72.1593 75.4422 73.4834 75.0663 74.4698 74.0098C74.7186 73.7456 74.9053 73.6034 74.8964 73.6847C74.8875 73.7659 74.8786 74.0809 74.8875 74.3653L74.8964 74.9037H76.0961H77.2957V67.3353V59.7669H76.0516H74.8075V62.459ZM73.4301 66.614C73.9811 66.9086 74.3809 67.3861 74.6475 68.0464C74.9408 68.7779 74.9408 70.2611 74.6475 70.9925C74.2299 72.0288 73.5367 72.5773 72.5414 72.6485C71.4128 72.7297 70.7108 72.2726 70.2487 71.1652C69.991 70.5354 69.9643 70.4033 69.9643 69.4687C69.9732 68.3614 70.1065 67.8433 70.5775 67.2134C71.1907 66.3905 72.497 66.1061 73.4301 66.614Z" fill="#02305A"/>
<path d="M0 61.1383V62.5098H2.04391H4.08783V68.5036V74.4974H5.42082H6.7538V68.5036V62.5098H8.75328H10.7528V61.1383V59.7669H5.37638H0V61.1383Z" fill="#02305A"/>
<path d="M35.355 67.9737V75.3389H36.6435H37.9321L37.9499 70.3204L37.9765 65.3019L39.6294 69.5687L41.2823 73.8253H42.2687C42.8197 73.8253 43.3174 73.8253 43.3796 73.8151C43.4507 73.8151 44.1971 72.0779 45.1835 69.589L46.8631 65.3527L46.8898 70.3509L46.9075 75.3389H48.1961H49.4846V67.9737V60.6084L47.7784 60.6288L46.0722 60.6592L45.1036 63.199C44.5793 64.5908 43.7795 66.6937 43.344 67.8721C42.8997 69.0404 42.5087 70.036 42.4731 70.0868C42.4109 70.1579 41.2557 67.2016 39.4784 62.4574L38.7852 60.6084H37.0701H35.355V67.9737Z" fill="#02305A"/>
<path d="M28.102 63.2282C27.4266 63.4009 26.8401 63.7463 26.4224 64.2237L26.0581 64.6199V64.0104V63.4009H24.8139H23.5698L23.5876 71.0404L23.6143 78.6901L24.885 78.7206L26.1469 78.7511V75.937V73.1331L26.4224 73.4074C26.8134 73.7732 27.471 74.1389 28.0753 74.3217C29.9593 74.8805 32.1543 73.763 33.1051 71.7617C33.6561 70.5832 33.8516 68.6734 33.5672 67.2714C33.1762 65.3819 32.172 64.0815 30.608 63.4313C29.8971 63.1367 28.804 63.0453 28.102 63.2282ZM29.6571 65.8796C30.5813 66.3673 31.0612 67.3629 31.0701 68.7851C31.0701 69.862 30.8568 70.5223 30.2881 71.1725C29.7371 71.8023 29.2661 71.9852 28.3864 71.9141C27.711 71.8531 27.2222 71.6093 26.7957 71.1014C25.7115 69.8112 25.8803 67.0987 27.0978 66.1438C27.8176 65.585 28.8929 65.4631 29.6571 65.8796Z" fill="#02305A"/>
<path d="M61.8622 64.0594C61.2046 64.2422 60.6803 64.5673 60.1649 65.1159L59.7295 65.5832V64.9026V64.2321H58.4853H57.2412V69.6163V75.0006H58.512H59.7739L59.7472 72.3897C59.7117 68.6715 59.8361 67.7775 60.5026 67.0563C61.0091 66.4975 61.88 66.3146 62.6798 66.5889C63.1064 66.7312 63.5951 67.3305 63.7195 67.8588C63.7817 68.0925 63.8173 69.5554 63.8173 71.6176V75.0006H65.0703H66.3144L66.2878 71.0081C66.2611 67.1578 66.2522 67.0055 66.0567 66.4569C65.6657 65.3292 65.0614 64.6384 64.1283 64.2422C63.5151 63.9781 62.4843 63.8968 61.8622 64.0594Z" fill="#02305A"/>
<path d="M15.6886 63.2203C15.0665 63.3219 14.3644 63.7079 13.8579 64.2261L13.4402 64.6426L13.4758 63.9822L13.5025 63.3219H12.2228H10.9431V68.7062V74.0904H12.2317H13.5202V71.1138C13.5202 67.8122 13.5735 67.3652 14.0534 66.7353C14.4977 66.1664 15.1109 65.9226 16.1151 65.9124H16.986V64.5816C16.986 63.2813 16.9771 63.2406 16.7905 63.1797C16.5505 63.1086 16.2928 63.1187 15.6886 63.2203Z" fill="#02305A"/>
<path d="M18.5193 68.5182V73.9024H19.7901H21.052V68.5182V63.1339H19.7901H18.5193V68.5182Z" fill="#02305A"/>
<path d="M52.1907 69.36V74.7442H53.4792H54.7589L54.7678 69.36V63.9757H53.4792H52.1907V69.36Z" fill="#02305A"/>
<path d="M30.5745 8.59205C30.7275 8.5525 31.0825 8.49209 31.3625 8.4583C31.6425 8.4245 32.3313 8.40868 32.8922 8.42378C33.5931 8.44248 34.1002 8.49785 34.5146 8.6014C34.8456 8.68409 35.2841 8.81928 35.488 8.90054C35.692 8.98251 36.0462 9.12561 36.2761 9.21838C36.506 9.31042 37.0372 9.64696 37.4581 9.96551C37.879 10.2841 38.2229 10.5616 38.2229 10.5811C38.2229 10.6012 38.3407 10.7544 38.4844 10.9226C38.6281 11.0909 38.832 11.3742 38.9387 11.5518C39.0443 11.7302 39.2279 12.1019 39.3456 12.3788C39.5292 12.8095 39.5607 13.0324 39.5635 13.9248C39.5663 14.8855 39.5459 15.0157 39.3011 15.5787C39.1547 15.9153 38.8942 16.4165 38.7217 16.6933C38.5493 16.9702 38.4084 17.237 38.4084 17.2866C38.4084 17.3362 38.3768 17.3765 38.3388 17.3765C38.3008 17.3765 38.21 17.4815 38.1367 17.6102C38.0644 17.7389 37.7316 18.1998 37.3969 18.6349C37.0622 19.0699 36.7461 19.4784 36.6942 19.5431C36.6432 19.6071 36.3743 19.9141 36.0981 20.2262C35.8227 20.5376 35.0662 21.3423 34.4182 22.0146C33.7702 22.687 33.1407 23.3111 33.0201 23.4017C32.8672 23.5161 32.6855 23.5679 32.4287 23.57C32.1199 23.5729 32.0115 23.5319 31.7797 23.327C31.6267 23.1918 31.4385 23.0192 31.3616 22.943C31.2846 22.8675 31.0306 22.6115 30.7979 22.3742C30.5643 22.1369 30.0609 21.6026 29.678 21.1877C29.296 20.7727 28.7324 20.1414 28.4255 19.7854C28.1186 19.4295 27.6653 18.8794 27.4187 18.563C27.1712 18.2466 26.7289 17.6152 26.4369 17.1607C26.1439 16.7063 25.7731 16.0267 25.6127 15.6507C25.3958 15.1444 25.3068 14.7813 25.2679 14.2484C25.2354 13.8083 25.2586 13.3481 25.3281 13.0619C25.3902 12.8052 25.5265 12.4004 25.6313 12.1631C25.736 11.9258 25.9493 11.554 26.105 11.3361C26.2608 11.1189 26.5157 10.8112 26.6724 10.653C26.8281 10.4948 27.212 10.1712 27.5244 9.93387C27.8359 9.69657 28.3773 9.37298 28.7268 9.21478C29.0763 9.05658 29.5723 8.86818 29.8291 8.79555C30.0859 8.72364 30.4215 8.6316 30.5745 8.59205Z" fill="#DFA232"/>
<path d="M30.7567 11.2325C31.0639 11.1239 31.545 11.0106 31.8248 10.9797C32.1045 10.9487 32.4707 10.9345 32.6385 10.9487C32.8063 10.963 33.1267 10.9971 33.3505 11.0248C33.5743 11.0518 34.0269 11.1873 34.3565 11.3253C34.6861 11.464 35.1173 11.7193 35.3167 11.8937C35.5151 12.068 35.7948 12.4065 35.9362 12.6467C36.1549 13.0153 36.1955 13.1984 36.1966 13.8358C36.1986 14.5254 36.1701 14.6356 35.8619 15.1437C35.6666 15.4656 35.3442 15.8318 35.0939 16.0157C34.8569 16.1901 34.4592 16.4121 34.21 16.5088C33.9608 16.6055 33.5285 16.7268 33.2488 16.7783C32.9436 16.8346 32.4757 16.8512 32.0791 16.8203C31.6885 16.7894 31.1677 16.6776 30.8076 16.546C30.4719 16.424 30.0142 16.1949 29.7904 16.0379C29.5666 15.881 29.292 15.6154 29.1811 15.4481C29.0692 15.2809 28.9533 15.1255 28.9217 15.1041C28.8902 15.0827 28.8109 14.9218 28.7448 14.7474C28.6786 14.573 28.6227 14.1806 28.6207 13.8754C28.6186 13.5702 28.6675 13.1961 28.7285 13.0431C28.7905 12.8901 28.935 12.6229 29.0509 12.4485C29.1659 12.2741 29.471 11.9737 29.7294 11.7803C29.9867 11.5877 30.4495 11.3411 30.7567 11.2325Z" fill="#005783"/>
</svg>
